PathFileType	4	(X/Y/Z)	s02c0101.trc
DataRate	CameraRate	NumFrames	NumMarkers	Units	OrigDataRate	OrigDataStartFrame	OrigNumFrames
200	200	6	51	mm	200	1000	2000
Frame#	Time	racr			lacr			c7			jug			rlel			rdr			llel			ldr			s2			lic			ric			lasi			rasi			rpsi			lpsi			rgt			lgt			rth1			rth2			rth3			rth4			rlfc			rmfc			rsh1			rsh2			rsh3			rsh4			rlmal			rmmal			rtoe			rmt5			rmt1			lth1			lth2			lth4			lth3			llfc			lmfc			lsh1			lsh2			lsh3			lsh4			llmal			lmmal			lcal			ltoe			lmt1			lmt5			SBIKE			LBIKE			RBIKE			
		X1	Y1	Z1	X2	Y2	Z2	X3	Y3	Z3	X4	Y4	Z4	X5	Y5	Z5	X6	Y6	Z6	X7	Y7	Z7	X8	Y8	Z8	X9	Y9	Z9	X10	Y10	Z10	X11	Y11	Z11	X12	Y12	Z12	X13	Y13	Z13	X14	Y14	Z14	X15	Y15	Z15	X16	Y16	Z16	X17	Y17	Z17	X18	Y18	Z18	X19	Y19	Z19	X20	Y20	Z20	X21	Y21	Z21	X22	Y22	Z22	X23	Y23	Z23	X24	Y24	Z24	X25	Y25	Z25	X26	Y26	Z26	X27	Y27	Z27	X28	Y28	Z28	X29	Y29	Z29	X30	Y30	Z30	X31	Y31	Z31	X32	Y32	Z32	X33	Y33	Z33	X34	Y34	Z34	X35	Y35	Z35	X36	Y36	Z36	X37	Y37	Z37	X38	Y38	Z38	X39	Y39	Z39	X40	Y40	Z40	X41	Y41	Z41	X42	Y42	Z42	X43	Y43	Z43	X44	Y44	Z44	X45	Y45	Z45	X46	Y46	Z46	X47	Y47	Z47	X48	Y48	Z48	X49	Y49	Z49	X50	Y50	Z50	X51	Y51	Z51	
1000	5.0000	512.532561	1262.606226	-131.461400	531.645169	1246.255814	-477.096705	512.216745	1310.832812	-309.313594	460.517417	1177.270689	-310.787953	547.103727	993.607345	-73.654791	717.737559	856.918566	-134.828086	520.490783	981.335657	-589.472683	689.753784	840.451381	-516.893815	-0.172288	1109.093261	-340.378485	139.661173	1115.338581	-477.735783	119.417313	1127.861759	-194.376177	180.139028	1084.992396	-450.382617	174.251651	1103.292183	-215.102942	16.456883	1162.437597	-298.894202	22.981273	1151.724362	-380.898927	104.863391	1041.980194	-157.591251	94.465039	1015.120542	-510.157968	195.815593	997.159022	-145.071934	278.488156	966.174979	-148.315062	334.715343	905.682003	-126.529328	296.153682	989.311354	-172.901232	428.748510	795.118881	-161.500200	422.279500	776.076289	-269.825537	423.885100	683.538752	-141.361779	425.483582	595.696754	-159.320319	387.361870	518.425865	-154.656942	438.479755	595.517099	-196.958089	349.563336	408.049036	-158.284842	353.599938	423.430136	-240.780782	563.772909	362.265691	-192.662319	455.389326	342.646853	-132.546732	480.572550	360.112344	-240.212582	215.429072	935.724656	-512.988287	291.195513	893.444156	-507.000602	313.018711	916.572893	-488.870377	336.235959	816.812607	-509.323412	395.200264	736.902425	-486.221735	390.774668	705.094419	-382.136914	338.071963	649.866821	-505.443242	293.301891	577.603737	-489.466051	215.657735	531.795429	-495.035908	307.845388	566.732622	-452.441766	126.756032	467.038296	-486.675774	140.457311	453.469130	-408.236525	48.474675	472.513058	-444.413417	230.403611	250.275033	-439.734218	174.646387	310.321908	-395.299119	143.164078	310.818530	-503.846015	-164.630525	859.253293	-312.960938	32.711813	82.450622	-515.267879	32.961678	82.268767	-115.170175	
1001	5.0050	513.585055	1261.648601	-131.508408	531.261550	1245.570947	-477.284060	512.010076	1310.141321	-308.865832	460.726463	1176.757975	-310.282217	547.882715	993.172518	-72.311847	717.671560	856.598908	-134.510576	520.961955	980.795028	-589.478078	689.993763	840.211786	-516.602907	0.348503	1107.305324	-339.555018	139.588671	1114.272448	-476.600297	120.300231	1126.096544	-192.992739	180.339531	1084.298236	-449.194739	175.204932	1101.709584	-213.736208	17.383933	1159.353712	-297.159076	22.978803	1149.830716	-380.845589	105.016504	1039.271374	-156.798428	96.125470	1014.090346	-509.417844	195.585187	992.875300	-143.747693	277.621127	960.291430	-147.208749	332.636545	898.591251	-125.700332	295.867938	983.462800	-171.275519	425.671878	787.493634	-159.582027	418.377593	768.284130	-269.208495	421.903794	675.412821	-140.691601	424.531757	587.354104	-158.779018	387.588205	509.702787	-153.824096	436.945378	587.730503	-196.634906	351.044920	398.296763	-157.446439	356.955865	415.331418	-240.058452	564.905010	350.014511	-192.689613	456.423854	331.601929	-132.362455	481.949782	348.514806	-240.336170	218.236003	937.030929	-512.193105	294.904754	896.464297	-505.778974	316.005649	919.954245	-487.172563	341.813511	821.186068	-508.488763	401.496755	742.105568	-484.792561	396.083130	709.625364	-380.488790	343.433097	656.095630	-504.075537	297.074846	584.847580	-488.210563	218.403589	540.776555	-494.439335	311.331637	573.709140	-451.226075	128.298425	478.055988	-485.955337	141.850617	463.896624	-407.817986	49.693623	484.178276	-444.143422	229.971544	260.325222	-439.776815	174.667558	320.922740	-395.167555	143.293897	321.875507	-503.694221	-164.660055	859.300653	-312.690796	32.723488	82.481677	-515.255034	32.957582	82.285382	-115.156137	
1002	5.0100	514.455119	1260.263586	-132.033875	530.827114	1244.926136	-477.534908	511.928986	1309.853987	-308.748403	460.826851	1176.156964	-309.929342	548.691763	992.774658	-70.840387	717.669319	856.345047	-133.971602	521.227473	980.436349	-589.778175	690.274515	840.136603	-516.240474	0.887981	1105.635751	-338.540665	139.511448	1113.232064	-475.302105	121.215762	1124.465893	-191.456159	180.538288	1083.710074	-447.935700	176.243300	1100.182667	-212.252258	18.144337	1156.280814	-295.636985	23.760536	1148.388316	-381.716921	105.333587	1036.843736	-155.703237	97.728014	1013.221848	-508.519808	195.596463	989.069955	-142.393005	276.918393	954.798475	-146.073855	330.651026	891.950451	-124.862944	295.697320	977.752415	-169.913910	422.075567	779.392586	-159.816200	414.645552	760.625272	-268.271604	419.574757	667.111992	-140.189558	423.703666	578.948534	-158.589186	387.916628	500.806785	-153.537866	435.063876	579.880274	-196.398457	351.960976	388.984192	-156.779453	359.101612	407.414361	-238.480547	565.514957	337.610425	-193.038498	457.008562	320.683179	-132.385402	482.441106	337.370820	-240.000512	220.862704	938.495643	-511.284025	298.423076	899.758387	-504.562442	318.849168	923.608880	-485.577578	347.203541	825.392803	-507.159345	407.754752	747.777063	-482.908692	398.803190	716.489135	-378.496176	348.661163	662.605997	-502.691119	300.910705	592.332272	-486.962789	221.352070	549.734368	-493.374946	314.787456	580.787819	-449.839740	130.074874	489.029535	-485.216652	143.399454	474.579299	-407.051684	51.036810	495.602335	-443.895120	230.213809	270.774773	-439.802001	175.392111	331.814172	-395.272452	144.049799	332.924215	-503.591457	-164.618900	859.271486	-312.804462	32.711100	82.490694	-515.262311	32.969206	82.276981	-115.166414	
1003	5.0150	515.483246	1259.382507	-132.096144	530.336006	1244.394658	-478.041038	511.874489	1309.510696	-308.850729	460.890725	1175.845327	-309.632974	549.492044	992.447589	-69.353953	717.711331	856.035164	-133.365942	521.550258	979.976109	-589.930451	690.520776	840.167736	-515.846316	1.563844	1104.024300	-337.114006	139.385521	1112.365415	-473.983484	122.174099	1123.027901	-189.849564	180.663220	1083.098459	-446.514751	177.370889	1098.815603	-210.579346	19.770024	1153.130825	-294.156404	22.598356	1146.868926	-380.008963	105.816364	1034.644861	-154.476398	99.240013	1012.523151	-507.465787	195.903992	985.664422	-141.173464	276.462594	949.809906	-145.013850	328.858378	885.729755	-124.009207	295.640289	972.369938	-168.852261	418.207734	771.272021	-159.310622	410.471889	751.155462	-268.586101	416.971105	658.619362	-139.773523	422.228324	570.639546	-158.191243	387.373967	491.989473	-152.892876	433.068314	571.799068	-196.082540	352.556043	379.979201	-156.154549	359.384365	393.304934	-237.602020	565.675172	324.647890	-193.576885	457.036685	309.816426	-132.372144	482.430782	326.112932	-239.854896	223.353931	940.232755	-510.285018	301.807165	903.284327	-503.332633	321.539613	927.489580	-483.983685	352.245042	830.019769	-505.804779	413.866825	753.594124	-481.312024	402.948202	721.322800	-379.137663	353.825655	669.418599	-501.332657	304.685802	600.006576	-485.726394	224.461272	558.768996	-492.306296	318.336941	588.089008	-448.546844	132.090968	499.933613	-484.323646	145.158358	485.172899	-406.346235	52.907826	506.902894	-443.678974	231.168778	281.223383	-439.727952	176.919257	342.764863	-395.283635	145.406405	344.008835	-503.424132	-164.709838	859.259147	-312.871436	32.704327	82.454193	-515.275894	32.955773	82.259047	-115.152804	
1004	5.0200	516.489946	1258.667244	-132.021241	529.797277	1244.033174	-478.668730	511.847395	1309.325343	-309.152678	460.918193	1175.613390	-309.502311	550.473277	992.243127	-67.910134	717.673811	855.600609	-133.109726	521.818841	979.612763	-590.037535	690.599593	840.077159	-515.559454	2.270678	1102.544010	-335.548585	139.239101	1111.535260	-472.485063	123.240935	1121.774406	-188.072513	180.776672	1082.672737	-444.981791	178.445556	1097.531616	-208.864476	22.130740	1149.810172	-293.660995	23.050127	1145.376848	-378.190500	106.583671	1032.607808	-153.255362	100.643493	1012.088365	-506.273069	196.547932	982.784200	-139.685715	275.806892	944.773560	-144.271703	327.159151	879.621184	-123.056667	296.044967	967.127987	-167.910341	413.884425	763.035128	-158.697760	404.362854	742.721850	-266.956977	413.655979	650.344541	-139.270605	420.114827	562.366638	-157.488810	386.202603	483.400333	-152.048161	430.678901	563.671143	-195.417854	352.600091	370.946351	-155.455189	359.178374	384.599293	-236.763525	565.209082	311.569976	-193.798653	456.036536	298.164410	-133.016905	481.753055	315.092812	-239.741264	225.639616	942.307732	-509.150112	304.923340	907.159886	-502.052196	324.036965	931.703742	-482.386310	357.102666	834.918486	-504.340544	419.822460	759.905478	-479.768803	408.523437	727.357203	-377.492423	359.018001	676.408261	-499.966585	308.621124	607.962313	-484.514603	227.678811	567.979233	-491.252497	321.998992	595.565245	-447.336131	134.526612	510.804952	-483.515882	147.478997	495.678932	-405.806437	55.315926	518.048274	-443.671636	233.011508	292.069422	-440.039449	180.176790	354.748264	-396.123693	147.376736	355.169037	-503.225255	-164.830514	858.643259	-313.943083	32.711111	82.436668	-515.273934	32.974951	82.262030	-115.171224	
1005	5.0250	517.447244	1258.045379	-132.141263	529.044979	1243.851068	-479.370771	511.854390	1309.265119	-309.650407	460.942719	1175.503156	-309.552105	551.586058	992.265358	-66.538964	717.633908	854.947027	-133.169399	522.078212	979.429386	-590.033011	690.592644	839.904335	-515.358962	3.094342	1101.141043	-333.533401	139.019152	1110.481430	-470.943248	124.303143	1120.696214	-186.212138	180.429486	1082.053561	-442.461163	179.464531	1096.360074	-206.966704	23.075980	1147.325494	-291.537038	23.297021	1143.859705	-375.918297	107.466719	1030.767284	-151.920027	101.897319	1012.057076	-505.007535	197.349170	979.859188	-138.623035	275.443440	939.769489	-143.637880	325.501337	873.521886	-122.170310	296.587310	962.030985	-166.526970	409.451887	754.956739	-157.921544	401.203795	735.285961	-264.838327	409.672471	642.275390	-138.376726	417.389073	554.333281	-156.468165	384.269775	474.899556	-151.168686	427.899613	555.703926	-194.441247	352.016857	362.215437	-154.805783	358.433612	375.939886	-235.896225	563.881985	298.823584	-193.801846	454.600292	287.438480	-132.960663	480.559383	304.006662	-239.515586	227.785445	944.647738	-507.619741	307.800614	911.345515	-500.844163	326.313948	936.289581	-480.940098	361.392326	840.291780	-502.872489	425.571781	766.397267	-478.026762	423.634513	733.750610	-370.501961	364.060427	683.780253	-498.542246	312.667214	616.106847	-483.292484	231.035876	577.335355	-490.271025	325.785458	603.334708	-446.131802	137.273795	521.657091	-482.749828	149.786601	506.382865	-404.787795	57.821616	528.677465	-443.075745	235.571925	302.750189	-440.029724	182.679383	365.467970	-396.110184	149.964167	366.059882	-503.167017	-164.820869	858.640946	-314.294803	32.742924	82.435910	-515.275382	32.983051	82.242262	-115.161004	
